<svg width="132" height="126" viewBox="0 0 132 126" fill="none" xmlns="http://www.w3.org/2000/svg">
<rect width="132" height="126" fill="#1E1E1E"/>
<g style="mix-blend-mode:difference">
<path d="M75.4203 7.39193C83.2614 3.31739 92.9209 6.37079 96.9955 14.2119L123.739 65.6781C127.814 73.5192 124.76 83.1787 116.919 87.2532L56.5797 118.608C48.7386 122.683 39.0791 119.629 35.0045 111.788L8.2607 60.3219C4.18616 52.4808 7.23956 42.8213 15.0807 38.7468L75.4203 7.39193Z" fill="#D71921"/>
</g>
<path d="M96.7 68.9L96.6 72.8L91.1 73C90.3 77.6667 89 81.4333 87.2 84.3C85.4667 87.1667 82.5333 90.2667 78.4 93.6C74.2667 96.9333 69.3 99.7 63.5 101.9C57.7667 104.167 52.9667 105.3 49.1 105.3C45.2333 105.3 42.3 104.5 40.3 102.9C38.3 101.367 37.3 99.3333 37.3 96.8C37.3 92.9333 39.5667 89.0667 44.1 85.2C48.7 81.2667 54.2333 78 60.7 75.4C67.2333 72.7333 73.7 70.9333 80.1 70C79.1 68.3333 77.5667 66.9667 75.5 65.9C73.5 64.8333 70.0667 63.6333 65.2 62.3C62.5333 61.5667 61.2 60.3667 61.2 58.7C61.2 57.7 61.6 56.8 62.4 56C63.2667 55.1333 64.6667 54.1333 66.6 53C68.6 51.8 70.4667 50.6 72.2 49.4C74 48.1333 75.9667 46.6333 78.1 44.9C80.3 43.1667 82.1333 41.3667 83.6 39.5C85.0667 37.6333 85.8 36 85.8 34.6C85.8 32.2667 84.6333 31.1 82.3 31.1C80.5 31.1 78.0333 31.9667 74.9 33.7C71.8333 35.3667 68.8 37.5333 65.8 40.2L61.5 53.8C58.5 63.3333 55.1667 70.7333 51.5 76C47.9 81.2667 44.4667 83.9 41.2 83.9C37.7333 83.9 36 81.7667 36 77.5C36 73.2333 38.0667 67.8 42.2 61.2C46.3333 54.5333 52.0667 47.7 59.4 40.7C59.4 40.6333 59.5667 40.0333 59.9 38.9C60.3 37.7 60.6667 36.5 61 35.3C62.1333 31.7 63 29.4 63.6 28.4L68.5 29.2C68.5 30.4667 68.2333 31.9667 67.7 33.7C71.4333 30.9 75.3667 28.4667 79.5 26.4C83.7 24.2667 86.7667 23.2 88.7 23.2C90.7 23.2 92.3 23.8333 93.5 25.1C94.7 26.3 95.3 28.1 95.3 30.5C95.3 32.8333 94.1667 35.5333 91.9 38.6C89.7 41.6667 86.9333 44.4333 83.6 46.9C77.5333 51.4333 72.3667 54.7 68.1 56.7C75.0333 57.7667 80.1 59.2 83.3 61C86.5 62.7333 88.8333 65.3667 90.3 68.9H96.7ZM48.1 71.2C52.7667 63.6667 55.8667 55.9333 57.4 48C53.8 51.9333 50.5333 56.4333 47.6 61.5C44.6667 66.5667 43.2 70.2333 43.2 72.5C43.2 73.9 43.6667 74.6 44.6 74.6C45.6 74.6 46.7667 73.4667 48.1 71.2ZM71.3 92.6C74.5667 90.4 77.1667 87.9333 79.1 85.2C81.0333 82.4667 82 79.9 82 77.5C82 76.3667 81.8333 75.2333 81.5 74.1C71.5 75.3 63.2667 77.9333 56.8 82C50.3333 86 47.1 89.8333 47.1 93.5C47.1 95.1 47.7333 96.3667 49 97.3C50.2667 98.3 52 98.8 54.2 98.8C59.6 98.8 65.3 96.7333 71.3 92.6Z" fill="white"/>
</svg>
