<svg width="37" height="49" viewBox="0 0 37 49" fill="none" xmlns="http://www.w3.org/2000/svg">
<path d="M20.5383 43.9935C22.5022 42.045 24.4664 39.89 26.2975 37.5928C30.5298 32.2832 33.3964 27.0458 34.281 22.2225C34.4691 21.1967 34.5648 20.1978 34.5648 19.2278C34.5648 9.92968 27.3848 2.30125 18.6195 2.30125C9.85418 2.30125 2.67417 9.92968 2.67417 19.2278C2.67417 20.1978 2.76986 21.1967 2.95799 22.2225C3.84256 27.0458 6.70916 32.2832 10.9414 37.5928C12.7725 39.89 14.7368 42.045 16.7007 43.9935C17.3875 44.6749 18.0248 45.2814 18.5957 45.8051C19.2142 45.2814 19.8514 44.6749 20.5383 43.9935ZM36.6545 19.2278C36.6545 20.3278 36.5467 21.4524 36.3364 22.5995C35.378 27.8252 32.3591 33.3408 27.9316 38.8953C26.0461 41.2608 24.0282 43.4746 22.0101 45.4769C21.3032 46.1782 20.6463 46.8035 20.0558 47.3451C19.6991 47.6723 19.442 47.9003 19.3012 48.0216C18.9093 48.359 18.3296 48.359 17.9378 48.0216C17.7969 47.9003 17.5399 47.6723 17.1832 47.3451C16.5927 46.8035 15.9357 46.1782 15.2289 45.4769C13.2107 43.4746 11.1929 41.2608 9.30736 38.8953C4.87984 33.3408 1.86094 27.8252 0.902575 22.5995C0.692211 21.4524 0.584473 20.3278 0.584473 19.2278C0.584473 8.80292 8.67082 0.211548 18.6195 0.211548C28.5681 0.211548 36.6545 8.80292 36.6545 19.2278ZM18.6195 27.2868C13.6267 27.2868 9.57926 23.2393 9.57926 18.2466C9.57926 13.2538 13.6267 9.20634 18.6195 9.20634C23.6123 9.20634 27.6597 13.2538 27.6597 18.2466C27.6597 23.2393 23.6123 27.2868 18.6195 27.2868ZM18.6195 25.1971C22.4581 25.1971 25.57 22.0852 25.57 18.2466C25.57 14.4079 22.4581 11.296 18.6195 11.296C14.7808 11.296 11.669 14.4079 11.669 18.2466C11.669 22.0852 14.7808 25.1971 18.6195 25.1971Z" fill="#AAAAAA"/>
</svg>
