<svg width="51" height="59" viewBox="0 0 51 59" fill="none" xmlns="http://www.w3.org/2000/svg">
<path fill-rule="evenodd" clip-rule="evenodd" d="M49.8047 23.8451H11.3692L48.2839 13.1549C48.5656 13.076 48.8134 12.8732 48.9598 12.6141C49.1063 12.3551 49.1401 12.0396 49.0499 11.758L47.1237 5.08927C46.3464 2.41952 43.8681 0.560829 41.097 0.560829C40.5112 0.560829 39.9255 0.639683 39.3622 0.808654L4.70046 10.8456C3.08959 11.3074 1.77161 12.3776 0.960548 13.8533C0.149484 15.3177 -0.0420179 17.0074 0.419838 18.6183L2.31232 25.1293V51.9733C2.31232 55.4316 5.12852 58.2478 8.57555 58.2478H18.1957H22.1046H31.1164H35.8476H44.6454C48.1037 58.2478 50.9199 55.4316 50.9199 51.9733V24.9716C50.9312 24.352 50.4242 23.8451 49.8047 23.8451ZM40.9506 26.0981L36.163 34.389H29.9336L34.7211 26.0981H40.9506ZM32.119 26.0981L27.3314 34.389H21.102L25.8895 26.0981H32.119ZM23.2986 26.0981L18.5111 34.389H12.2817L17.0692 26.0981H23.2986ZM14.467 26.0981L9.6795 34.389H4.56528V26.0981H14.467ZM39.9818 2.97149C40.3423 2.87011 40.714 2.81379 41.0857 2.81379C42.8656 2.81379 44.4539 4.00785 44.9496 5.70883L46.5717 11.2962L42.0545 12.6029C42.0094 12.5466 41.9644 12.479 41.9081 12.4339L33.8988 4.74006L39.9818 2.97149ZM31.4205 5.44974C31.4656 5.50607 31.5107 5.57366 31.567 5.61872L39.5762 13.3126L33.5721 15.0473C33.5271 14.991 33.482 14.9234 33.4257 14.8784L25.4164 7.18452L31.4205 5.44974ZM22.9382 7.90547C22.9832 7.96179 23.0283 8.02938 23.0846 8.07444L31.0939 15.7683L25.0897 17.5031C25.0447 17.4467 24.9996 17.3791 24.9433 17.3341L16.934 9.64024L22.9382 7.90547ZM14.467 10.3612C14.5121 10.4175 14.5571 10.4851 14.6135 10.5302L22.6227 18.224L16.6186 19.97C16.5735 19.9137 16.5285 19.8461 16.4722 19.8011L8.4629 12.1072L14.467 10.3612ZM2.58268 17.9874C2.28979 16.9624 2.41371 15.8809 2.93189 14.9347C3.45007 13.9884 4.30619 13.3126 5.33129 13.0084L5.99591 12.8169C6.04097 12.8732 6.08603 12.9408 6.14235 12.9859L14.1516 20.6797L4.20481 23.5635L2.58268 17.9874ZM48.6782 51.962C48.6782 54.1812 46.8758 55.9836 44.6567 55.9836H35.8589H31.1277H22.1158H18.1957H8.57555C6.36765 55.9836 4.56528 54.1812 4.56528 51.962V36.6419H10.3329H19.1532H27.9735H36.7938H48.6557V51.962H48.6782ZM48.6782 34.389H38.7652L43.5527 26.0981H48.6782V34.389Z" fill="#BABABA"/>
<path fill-rule="evenodd" clip-rule="evenodd" d="M33.8424 45.2255L23.9407 39.5143C23.5915 39.3115 23.1634 39.3115 22.8142 39.5143C22.465 39.7171 22.251 40.0888 22.251 40.4943V51.9168C22.251 52.3223 22.465 52.6941 22.8142 52.8969C22.9832 52.9982 23.186 53.0433 23.3775 53.0433C23.569 53.0433 23.7717 52.9982 23.9407 52.8969L33.8424 47.1856C34.1916 46.9828 34.4057 46.6111 34.4057 46.2056C34.4057 45.8 34.1916 45.417 33.8424 45.2255ZM24.5152 49.9567V42.4319L31.0375 46.1943L24.5152 49.9567Z" fill="#BABABA"/>
</svg>
