<svg width="229" height="165" viewBox="0 0 229 165" fill="none" xmlns="http://www.w3.org/2000/svg">
<path d="M165.152 67.7395L166.796 51.9946L152.33 45.5578C151.857 45.3479 151.48 44.9701 151.27 44.4985L144.835 30.0328L129.087 31.6787C128.576 31.7297 128.063 31.5911 127.648 31.2907L114.828 22L102.008 31.2907C101.592 31.5911 101.079 31.7297 100.569 31.6787L84.8201 30.0328L78.3853 44.4985C78.1765 44.9701 77.7986 45.3479 77.326 45.5557L62.8604 51.9946L64.5042 67.7395C64.5572 68.2508 64.4197 68.7641 64.1182 69.1807L54.8275 82.0005L64.1182 94.8203C64.4197 95.2368 64.5572 95.7502 64.5042 96.2614L62.8604 112.005L77.326 118.442C77.7976 118.652 78.1755 119.03 78.3853 119.502L84.8201 133.968L100.569 132.322C100.639 132.322 100.713 132.311 100.777 132.311C101.217 132.311 101.645 132.451 102 132.71L114.828 142L127.648 132.71C128.063 132.408 128.576 132.269 129.087 132.322L144.835 133.968L151.27 119.502C151.48 119.03 151.857 118.653 152.33 118.444L166.796 112.005L165.152 96.2614C165.098 95.7502 165.235 95.2368 165.538 94.8203L174.828 82.0005L165.538 69.1807C165.235 68.7641 165.098 68.2508 165.152 67.7395ZM145.087 67.2048L103.788 108.506C102.973 109.32 101.653 109.32 100.838 108.506L83.1284 90.7962C82.7363 90.4051 82.5163 89.8735 82.5163 89.3194C82.5163 88.7653 82.7363 88.2337 83.1284 87.8426L89.0316 81.9608C89.8454 81.149 91.1633 81.149 91.9771 81.9608L102.313 92.2751L136.235 58.3531C137.05 57.5383 138.369 57.5383 139.184 58.3531L145.087 64.2553C145.902 65.0701 145.902 66.3911 145.087 67.2048Z" fill="#D71921"/>
<circle cx="25.5891" cy="36.4771" r="8" fill="#D71921" fill-opacity="0.8"/>
<circle cx="220.741" cy="121.071" r="8" fill="#D71921" fill-opacity="0.8"/>
<circle cx="166.65" cy="159.949" r="5" fill="#D71921" fill-opacity="0.8"/>
<circle cx="85.4063" cy="4.99998" r="5" fill="#D71921" fill-opacity="0.8"/>
<circle cx="195.264" cy="17.7005" r="11" fill="#D71921" fill-opacity="0.8"/>
<circle cx="11.0002" cy="124.071" r="11" fill="#D71921" fill-opacity="0.8"/>
</svg>
